<svg width="24" height="24" viewBox="0 0 24 24" fill="none" xmlns="http://www.w3.org/2000/svg">
<path fill-rule="evenodd" clip-rule="evenodd" d="M16.2277 7.24639C15.1385 6.20593 13.753 5.67615 12.2099 5.67615C9.47276 5.67615 7.15592 7.52285 6.32922 10.0043V10.0049C6.11902 10.635 5.99959 11.3079 5.99959 12C5.99959 12.692 6.11902 13.365 6.32922 13.995L6.32903 13.9951C7.15556 16.4769 9.47255 18.3238 12.2099 18.3238C13.624 18.3238 14.8279 17.9516 15.7691 17.3216L15.7692 17.3217C16.8824 16.5771 17.6228 15.4651 17.8665 14.1525H12.2101V10.0909H22.1088C22.233 10.7782 22.2999 11.4941 22.2999 12.2387C22.2999 15.4364 21.1533 18.1282 19.1659 19.9562H19.1657C17.4267 21.5598 15.0476 22.5 12.2099 22.5C8.10139 22.5 4.54703 20.147 2.81762 16.7154V16.715C2.10594 15.2976 1.69995 13.6941 1.69995 12C1.69995 10.3057 2.10599 8.70214 2.81776 7.28468L2.81762 7.28457C4.54702 3.85296 8.10139 1.5 12.2099 1.5C15.0429 1.5 17.422 2.54046 19.2422 4.23478L16.2277 7.24639Z" fill="#3C3C3B"/>
</svg>
